<?xml version="1.0" encoding="UTF-8"?>
<svg id="Layer_1" data-name="Layer 1" xmlns="http://www.w3.org/2000/svg" viewBox="0 0 24 24">
  <defs>
    <style>
      .cls-1 {
        fill: #fff;
      }

      .cls-2 {
        fill: none;
        stroke: #fff;
        stroke-miterlimit: 10;
      }
    </style>
  </defs>
  <g>
    <path d="m21,4c-1.11-.35-2.33-.5-3.5-.5-1.95,0-4.05.4-5.5,1.5-1.45-1.1-3.55-1.5-5.5-1.5s-4.05.4-5.5,1.5v14.65c0,.25.25.5.5.5.1,0,.15-.05.25-.05,1.35-.65,3.3-1.1,4.75-1.1,1.95,0,4.05.4,5.5,1.5,1.35-.85,3.8-1.5,5.5-1.5s3.35.3,4.75,1.05c.1.05.15.05.25.05.25,0,.5-.25.5-.5V5c-.6-.45-1.25-.75-2-1m0,13.5c-1.1-.35-2.3-.5-3.5-.5-1.7,0-4.15.65-5.5,1.5V7c1.35-.85,3.8-1.5,5.5-1.5,1.2,0,2.4.15,3.5.5v11.5Z"/>
    <path class="cls-1" d="m21,17.5c-1.1-.35-2.3-.5-3.5-.5-1.7,0-4.15.65-5.5,1.5V7c1.35-.85,3.8-1.5,5.5-1.5,1.2,0,2.4.15,3.5.5v11.5Z"/>
  </g>
  <path class="cls-2" d="m21,4c-1.11-.35-2.33-.5-3.5-.5-1.95,0-4.05.4-5.5,1.5-1.45-1.1-3.55-1.5-5.5-1.5s-4.05.4-5.5,1.5v14.65c0,.25.25.5.5.5.1,0,.15-.05.25-.05,1.35-.65,3.3-1.1,4.75-1.1,1.95,0,4.05.4,5.5,1.5,1.35-.85,3.8-1.5,5.5-1.5s3.35.3,4.75,1.05c.1.05.15.05.25.05.25,0,.5-.25.5-.5V5c-.6-.45-1.25-.75-2-1"/>
</svg>