<?xml version="1.0" encoding="UTF-8" standalone="no"?>
<svg
   id="Layer_1"
   data-name="Layer 1"
   viewBox="0 0 24 24"
   version="1.1"
   sodipodi:docname="checkmark.svg"
   inkscape:version="1.2.2 (b0a8486, 2022-12-01)"
   xmlns:inkscape="http://www.inkscape.org/namespaces/inkscape"
   xmlns:sodipodi="http://sodipodi.sourceforge.net/DTD/sodipodi-0.dtd"
   xmlns="http://www.w3.org/2000/svg"
   xmlns:svg="http://www.w3.org/2000/svg">
  <sodipodi:namedview
     id="namedview77"
     pagecolor="#ffffff"
     bordercolor="#000000"
     borderopacity="0.25"
     inkscape:showpageshadow="2"
     inkscape:pageopacity="0.0"
     inkscape:pagecheckerboard="0"
     inkscape:deskcolor="#d1d1d1"
     showgrid="false"
     inkscape:zoom="9.8333333"
     inkscape:cx="0.40677966"
     inkscape:cy="12"
     inkscape:window-width="1309"
     inkscape:window-height="456"
     inkscape:window-x="703"
     inkscape:window-y="874"
     inkscape:window-maximized="0"
     inkscape:current-layer="Layer_1" />
  <defs
     id="defs66">
    <style
       id="style64">
      .cls-1 {
        fill: none;
        stroke: #fff;
        stroke-linejoin: round;
      }

      .cls-2 {
        fill: #fff;
      }
    </style>
  </defs>
  <g
     id="g72">
    <polygon
       class="cls-2"
       points="19 8 17.59 6.58 10 14.17 6.41 10.58 5 12 10 17 19 8"
       id="polygon68" />
    <path
       d="m19,3H5c-1.11,0-2,.89-2,2v14c0,1.1.9,2,2,2h14c1.1,0,2-.9,2-2V5c0-1.11-.9-2-2-2Zm-9,14l-5-5,1.41-1.42,3.59,3.59,7.59-7.59,1.41,1.42-9,9Z"
       id="path70" />
  </g>
  <path
     class="cls-1"
     d="m5,3h14c1.11,0,2,.9,2,2v14c0,1.11-.89,2-2,2H5c-1.1,0-2-.89-2-2V5c0-1.1.9-2,2-2"
     id="path74" />
  <rect
     style="fill:#ffffff"
     id="rect403"
     width="14.338983"
     height="0.81355929"
     x="4.9830508"
     y="17.898306" />
</svg>
