<?xml version="1.0" encoding="UTF-8"?>
<svg id="Layer_1" data-name="Layer 1" xmlns="http://www.w3.org/2000/svg" viewBox="0 0 24 24">
  <defs>
    <style>
      .cls-1 {
        fill: none;
      }

      .cls-2 {
        fill: #fff;
      }
    </style>
  </defs>
  <path class="cls-1" d="m0,0h24v24H0V0Z"/>
  <g>
    <path class="cls-2" d="m12.28,16.38l4.19-4.19h-2.71v-3.61h-3.61v3.61h-2.71l4.19,4.19c.18.18.46.18.64,0Z"/>
    <g>
      <path d="m6.55,19c-3.26,0-5.91-2.65-5.91-5.91,0-2.94,2.13-5.4,5.01-5.84,1.29-2.28,3.69-3.68,6.32-3.68,3.33,0,6.24,2.29,7.04,5.49,2.43.35,4.29,2.45,4.29,4.93,0,2.76-2.25,5.01-5.01,5.01H6.55Zm5.44-2.97l3.29-3.34h-2.01v-3.61h-2.61v3.61h-2l3.33,3.34Z"/>
      <path class="cls-2" d="m11.96,4.07c3.28,0,6.02,2.34,6.63,5.45,2.35.16,4.19,2.09,4.19,4.47s-2.02,4.51-4.51,4.51H6.55c-2.99,0-5.41-2.43-5.41-5.41,0-2.79,2.11-5.09,4.83-5.38,1.13-2.16,3.39-3.64,6-3.64m0,12.45c.12,0,.23-.05.32-.14l4.19-4.19h-2.71v-3.61h-3.61v3.61h-2.71l4.19,4.19c.09.09.21.14.32.14m0-13.45c-2.73,0-5.22,1.42-6.63,3.73C2.34,7.36.14,9.98.14,13.09c0,3.54,2.88,6.41,6.41,6.41h11.73c3.04,0,5.51-2.47,5.51-5.51,0-2.62-1.87-4.85-4.39-5.37-.97-3.26-3.99-5.55-7.44-5.55h0Zm-.8,6.51h1.61v3.61h1.29l-2.1,2.1-2.1-2.1h1.3v-3.61h0Z"/>
    </g>
  </g>
</svg>