<?xml version="1.0" encoding="UTF-8"?>
<svg id="Layer_1" data-name="Layer 1" xmlns="http://www.w3.org/2000/svg" viewBox="0 0 24 24">
  <defs>
    <style>
      .cls-1 {
        fill: none;
        stroke: #fff;
        stroke-linejoin: round;
      }

      .cls-2 {
        fill: #fff;
      }
    </style>
  </defs>
  <g>
    <polygon class="cls-2" points="16 10 13.5 10 13.5 7 10.5 7 10.5 10 8 10 12 14 16 10"/>
    <rect class="cls-2" x="8" y="15" width="8" height="2"/>
    <path d="m19,3H5c-1.1,0-2,.9-2,2v14c0,1.11.9,2,2,2h14c1.11,0,2-.89,2-2V5c0-1.1-.89-2-2-2Zm-11,14v-2h8v2h-8Zm4-3l-4-4h2.5v-3h3v3h2.5l-4,4Z"/>
  </g>
  <path class="cls-1" d="m5,2.79h14c1.11,0,2,.9,2,2v14c0,1.11-.89,2-2,2H5c-1.1,0-2-.89-2-2V4.79c0-1.1.9-2,2-2"/>
</svg>