<?xml version="1.0" encoding="UTF-8"?>
<svg id="Layer_1" data-name="Layer 1" xmlns="http://www.w3.org/2000/svg" viewBox="0 0 24 24">
  <defs>
    <style>
      .cls-1 {
        fill: none;
      }

      .cls-2 {
        fill: #fff;
      }
    </style>
  </defs>
  <path class="cls-1" d="m-1.07,0h24v24H-1.07V0Z"/>
  <g>
    <path d="m11.93,21.23c-.42,0-.83-.11-1.2-.31l-5-2.73c-.8-.44-1.3-1.28-1.3-2.2v-3.65l6.78,3.71c.22.12.47.19.72.19s.5-.06.72-.19l6.78-3.71v3.65c0,.92-.5,1.76-1.3,2.2l-5,2.73c-.37.2-.78.31-1.2.31Zm10-3.73c-.83,0-1.5-.67-1.5-1.5v-5.07l-7.3,3.99c-.37.2-.78.31-1.2.31s-.83-.11-1.2-.31L2.3,10.32c-.49-.27-.78-.76-.78-1.32,0-.56.29-1.05.78-1.32L10.73,3.08c.37-.2.78-.3,1.2-.3s.83.1,1.2.3l9.52,5.19c.48.27.78.78.78,1.32v6.41c0,.83-.67,1.5-1.5,1.5Z"/>
    <path class="cls-2" d="m11.93,3.28c.33,0,.66.08.96.24l9.52,5.19c.32.18.52.51.52.88v6.41c0,.55-.45,1-1,1s-1-.45-1-1v-5.91l-8.04,4.39c-.3.16-.63.25-.96.25s-.66-.08-.96-.25L2.54,9.88c-.69-.38-.69-1.38,0-1.76L10.97,3.52c.3-.16.63-.24.96-.24m7,9.9v2.81c0,.73-.4,1.41-1.04,1.76l-5,2.73c-.3.17-.63.25-.96.25s-.66-.08-.96-.25l-5-2.73c-.64-.35-1.04-1.03-1.04-1.76v-2.81l6.04,3.3c.3.16.63.25.96.25s.66-.08.96-.25l6.04-3.3M11.93,2.28c-.5,0-.99.12-1.43.36L2.06,7.24c-.64.35-1.04,1.03-1.04,1.76s.4,1.4,1.04,1.76l1.87,1.02v4.21c0,1.1.6,2.11,1.56,2.64l5,2.73c.44.24.94.37,1.44.37s1-.13,1.44-.37l5-2.73c.96-.53,1.56-1.54,1.56-2.64h0c0,1.11.9,2.01,2,2.01s2-.9,2-2v-6.41c0-.72-.39-1.39-1.03-1.75L13.37,2.64c-.45-.24-.94-.36-1.44-.36h0Z"/>
  </g>
</svg>