<?xml version="1.0" encoding="UTF-8"?>
<svg id="Layer_1" data-name="Layer 1" xmlns="http://www.w3.org/2000/svg" viewBox="0 0 24 24">
  <defs>
    <style>
      .cls-1 {
        fill: none;
      }

      .cls-2 {
        fill: #fff;
      }
    </style>
  </defs>
  <path class="cls-1" d="m-.04,0v24h24V0H-.04Zm21,19c0,1.1-.9,2-2,2H4.96c-1.1,0-2-.9-2-2V5c0-1.1.9-2,2-2h14c1.1,0,2,.9,2,2v14Z"/>
  <path class="cls-2" d="m9.4,8.85c.41.17.85,0,1.1-.36.29-.43.76-.79,1.47-.79,1.62,0,1.94,1.52,1.37,2.33-.54.77-1.47,1.29-1.96,2.16-.19.34-.27.69-.3,1.03-.05.52.36.96.88.96h.06c.45,0,.85-.33.9-.78.03-.31.09-.45.19-.63.39-.71,1.11-1.06,1.87-2.17.68-1.01.42-2.36-.02-3.08-.52-.85-1.53-1.52-3.01-1.52-1.32,0-2.34.65-2.95,1.54-.32.46-.13,1.1.4,1.31Z"/>
  <path class="cls-2" d="m11.97,15.49c-.7,0-1.26.54-1.26,1.25s.56,1.26,1.26,1.26,1.24-.57,1.25-1.26c0-.71-.54-1.25-1.25-1.25Z"/>
  <g>
    <path d="m4.96,21.5c-1.38,0-2.5-1.12-2.5-2.5V5c0-1.38,1.12-2.5,2.5-2.5h14c1.38,0,2.5,1.12,2.5,2.5v14c0,1.38-1.12,2.5-2.5,2.5H4.96Zm7.01-5.51c-.43,0-.76.32-.76.75s.33.76.76.76.74-.33.75-.77c0-.43-.32-.74-.75-.74Zm0-8.79c.87,0,1.56.38,1.91,1.05.34.65.28,1.48-.13,2.07-.27.39-.62.71-.95,1.01-.39.35-.75.69-.98,1.1-.13.24-.21.5-.24.83-.01.11.02.21.09.29.07.08.18.13.29.13.26,0,.44-.15.46-.34.04-.37.11-.57.25-.82.22-.41.53-.71.86-1.02.32-.31.67-.66,1.04-1.19.58-.86.29-2.01-.03-2.54-.5-.81-1.44-1.28-2.58-1.28-1.42,0-2.2.83-2.54,1.32-.07.1-.08.21-.05.32.02.06.07.18.22.24.05.02.1.03.15.03.13,0,.27-.08.36-.21.43-.65,1.1-1,1.88-1Z"/>
    <path class="cls-2" d="m18.96,3c1.1,0,2,.9,2,2v14c0,1.1-.9,2-2,2H4.96c-1.1,0-2-.9-2-2V5c0-1.1.9-2,2-2h14m-9.23,5.92c.3,0,.59-.16.77-.43.29-.43.76-.79,1.47-.79,1.62,0,1.94,1.52,1.37,2.33-.54.77-1.47,1.29-1.96,2.16-.19.34-.27.69-.3,1.03-.05.52.36.96.88.96h.06c.45,0,.85-.33.9-.78.03-.31.09-.45.19-.63.39-.71,1.11-1.06,1.87-2.17.68-1.01.42-2.36-.02-3.08-.52-.85-1.53-1.52-3.01-1.52-1.32,0-2.34.65-2.95,1.54-.32.46-.13,1.1.4,1.31.11.05.22.07.33.07m2.24,9.08c.71,0,1.24-.57,1.25-1.26,0-.71-.54-1.25-1.25-1.25s-1.26.54-1.26,1.25.56,1.26,1.26,1.26M18.96,2H4.96c-1.65,0-3,1.35-3,3v14c0,1.65,1.35,3,3,3h14c1.65,0,3-1.35,3-3V5c0-1.65-1.35-3-3-3h0Zm-6.99,15c-.15,0-.26-.11-.26-.26,0-.17.13-.25.26-.25.16,0,.25.09.25.25,0,.12-.08.26-.25.26h0Z"/>
  </g>
</svg>